{
    "asset" : {
        "generator" : "Khronos glTF Blender I/O v3.2.43",
        "version" : "2.0"
    },
    "scene" : 0,
    "scenes" : [
        {
            "name" : "Scene",
            "nodes" : [
                0
            ]
        }
    ],
    "nodes" : [
        {
            "mesh" : 0,
            "name" : "Sphere"
        }
    ],
    "materials" : [
        {
            "doubleSided" : true,
            "name" : "Metal",
            "pbrMetallicRoughness" : {}
        },
        {
            "doubleSided" : true,
            "emissiveFactor" : [
                1,
                1,
                1
            ],
            "name" : "Light",
            "pbrMetallicRoughness" : {
                "baseColorFactor" : [
                    0,
                    0,
                    0,
                    1
                ]
            }
        },
        {
            "alphaMode" : "BLEND",
            "name" : "Material.001",
            "pbrMetallicRoughness" : {
                "baseColorFactor" : [
                    0.44078513979911804,
                    0.44078513979911804,
                    0.44078513979911804,
                    0.9615384340286255
                ],
                "metallicFactor" : 0,
                "roughnessFactor" : 0.6307692527770996
            }
        }
    ],
    "meshes" : [
        {
            "name" : "Sphere",
            "primitives" : [
                {
                    "attributes" : {
                        "POSITION" : 0,
                        "NORMAL" : 1,
                        "TEXCOORD_0" : 2
                    },
                    "indices" : 3,
                    "material" : 0
                },
                {
                    "attributes" : {
                        "POSITION" : 4,
                        "NORMAL" : 5,
                        "TEXCOORD_0" : 6
                    },
                    "indices" : 7,
                    "material" : 1
                },
                {
                    "attributes" : {
                        "POSITION" : 8,
                        "NORMAL" : 9,
                        "TEXCOORD_0" : 10
                    },
                    "indices" : 11,
                    "material" : 2
                }
            ]
        }
    ],
    "accessors" : [
        {
            "bufferView" : 0,
            "componentType" : 5126,
            "count" : 4191,
            "max" : [
                3.277648448944092,
                0.7594912648200989,
                3.2776474952697754
            ],
            "min" : [
                -3.277647018432617,
                -0.9134584665298462,
                -3.277646064758301
            ],
            "type" : "VEC3"
        },
        {
            "bufferView" : 1,
            "componentType" : 5126,
            "count" : 4191,
            "type" : "VEC3"
        },
        {
            "bufferView" : 2,
            "componentType" : 5126,
            "count" : 4191,
            "type" : "VEC2"
        },
        {
            "bufferView" : 3,
            "componentType" : 5123,
            "count" : 10848,
            "type" : "SCALAR"
        },
        {
            "bufferView" : 4,
            "componentType" : 5126,
            "count" : 580,
            "max" : [
                2.8725180625915527,
                0.7125666737556458,
                2.8725178241729736
            ],
            "min" : [
                -2.8725178241729736,
                -0.7067756056785583,
                -2.872519016265869
            ],
            "type" : "VEC3"
        },
        {
            "bufferView" : 5,
            "componentType" : 5126,
            "count" : 580,
            "type" : "VEC3"
        },
        {
            "bufferView" : 6,
            "componentType" : 5126,
            "count" : 580,
            "type" : "VEC2"
        },
        {
            "bufferView" : 7,
            "componentType" : 5123,
            "count" : 1056,
            "type" : "SCALAR"
        },
        {
            "bufferView" : 8,
            "componentType" : 5126,
            "count" : 263,
            "max" : [
                0.9807851314544678,
                1.55818510055542,
                0.9807849526405334
            ],
            "min" : [
                -0.9807847738265991,
                0.753275454044342,
                -0.9807852506637573
            ],
            "type" : "VEC3"
        },
        {
            "bufferView" : 9,
            "componentType" : 5126,
            "count" : 263,
            "type" : "VEC3"
        },
        {
            "bufferView" : 10,
            "componentType" : 5126,
            "count" : 263,
            "type" : "VEC2"
        },
        {
            "bufferView" : 11,
            "componentType" : 5123,
            "count" : 1248,
            "type" : "SCALAR"
        }
    ],
    "bufferViews" : [
        {
            "buffer" : 0,
            "byteLength" : 50292,
            "byteOffset" : 0
        },
        {
            "buffer" : 0,
            "byteLength" : 50292,
            "byteOffset" : 50292
        },
        {
            "buffer" : 0,
            "byteLength" : 33528,
            "byteOffset" : 100584
        },
        {
            "buffer" : 0,
            "byteLength" : 21696,
            "byteOffset" : 134112
        },
        {
            "buffer" : 0,
            "byteLength" : 6960,
            "byteOffset" : 155808
        },
        {
            "buffer" : 0,
            "byteLength" : 6960,
            "byteOffset" : 162768
        },
        {
            "buffer" : 0,
            "byteLength" : 4640,
            "byteOffset" : 169728
        },
        {
            "buffer" : 0,
            "byteLength" : 2112,
            "byteOffset" : 174368
        },
        {
            "buffer" : 0,
            "byteLength" : 3156,
            "byteOffset" : 176480
        },
        {
            "buffer" : 0,
            "byteLength" : 3156,
            "byteOffset" : 179636
        },
        {
            "buffer" : 0,
            "byteLength" : 2104,
            "byteOffset" : 182792
        },
        {
            "buffer" : 0,
            "byteLength" : 2496,
            "byteOffset" : 184896
        }
    ],
    "buffers" : [
        {
            "byteLength" : 187392,
            "uri" : "data:application/octet-stream;base64,"
        }
    ]
}
